<?xml version="1.0" encoding="UTF-8" standalone="no"?>
<!-- Created with Inkscape (http://www.inkscape.org/) -->

<svg
   xmlns:dc="http://purl.org/dc/elements/1.1/"
   xmlns:cc="http://creativecommons.org/ns#"
   xmlns:rdf="http://www.w3.org/1999/02/22-rdf-syntax-ns#"
   xmlns:svg="http://www.w3.org/2000/svg"
   xmlns="http://www.w3.org/2000/svg"
   xmlns:sodipodi="http://sodipodi.sourceforge.net/DTD/sodipodi-0.dtd"
   xmlns:inkscape="http://www.inkscape.org/namespaces/inkscape"
   width="700"
   height="700"
   viewBox="0 0 185.20834 185.20834"
   version="1.1"
   id="svg4882"
   inkscape:version="0.92.4 (5da689c313, 2019-01-14)"
   sodipodi:docname="cpfl-energia-logo.svg"
   inkscape:export-filename="G:\Users\suitedoalex\sites\svg\cpfl-energia-logo-0.png"
   inkscape:export-xdpi="561.73712"
   inkscape:export-ydpi="561.73712">
  <defs
     id="defs4876">
    <clipPath
       clipPathUnits="userSpaceOnUse"
       id="clipPath276">
      <path
         d="M 0,0 H 841.89 V 595.276 H 0 Z"
         id="path274"
         inkscape:connector-curvature="0" />
    </clipPath>
  </defs>
  <sodipodi:namedview
     id="base"
     pagecolor="#ffffff"
     bordercolor="#666666"
     borderopacity="1.0"
     inkscape:pageopacity="0.0"
     inkscape:pageshadow="2"
     inkscape:zoom="0.35"
     inkscape:cx="-23.92149"
     inkscape:cy="778.26817"
     inkscape:document-units="mm"
     inkscape:current-layer="layer1"
     showgrid="false"
     units="px"
     showguides="false"
     inkscape:window-width="1600"
     inkscape:window-height="837"
     inkscape:window-x="-8"
     inkscape:window-y="-8"
     inkscape:window-maximized="1" />
  <metadata
     id="metadata4879">
    <rdf:RDF>
      <cc:Work
         rdf:about="">
        <dc:format>image/svg+xml</dc:format>
        <dc:type
           rdf:resource="http://purl.org/dc/dcmitype/StillImage" />
        <dc:title></dc:title>
      </cc:Work>
    </rdf:RDF>
  </metadata>
  <g
     inkscape:label="Camada 1"
     inkscape:groupmode="layer"
     id="layer1"
     transform="translate(0,-111.79161)">
    <g
       id="g226"
       transform="matrix(1.8233022,0,0,-1.8233022,152.56526,168.9379)"
       style="fill:#ef8200;fill-opacity:1"
       inkscape:export-filename="G:\Users\suitedoalex\sites\svg\cpfl-energia-logo-4.png"
       inkscape:export-xdpi="75.274933"
       inkscape:export-ydpi="75.274933">
      <path
         d="m 0,0 c -11.463,-8.972 -22.27,-10.746 -22.27,-10.746 l -1.237,-3.563 c 14,3.395 20.552,9.38 22.547,11.376 C -0.413,-1.262 0,0 0,0 0,0 -0.567,-1.731 0,0"
         style="fill:#ef8200;fill-opacity:1;fill-rule:nonzero;stroke:none"
         id="path228"
         inkscape:connector-curvature="0" />
    </g>
    <g
       id="g230"
       transform="matrix(1.8233022,0,0,-1.8233022,95.67467,170.10425)"
       inkscape:export-filename="G:\Users\suitedoalex\sites\svg\cpfl-energia-logo-4.png"
       inkscape:export-xdpi="75.274933"
       inkscape:export-ydpi="75.274933">
      <path
         d="m 0,0 c 19.765,1.867 27.994,5.893 35.329,9.501 0,0 -0.171,-0.473 -0.88,-2.386 C 32.82,5.73 21.172,-1.951 -2.295,-4.019 Z"
         style="fill:#66bc29;fill-opacity:1;fill-rule:nonzero;stroke:none"
         id="path232"
         inkscape:connector-curvature="0" />
    </g>
    <path
       d="m 29.621775,183.02421 -4.503556,7.72166 c 72.904741,2.00018 98.698971,-8.04986 111.294341,-15.31029 0.61995,-0.9864 2.07492,-3.97116 2.6055,-5.05962 -25.5973,11.06196 -63.80279,15.85721 -109.396285,12.64825"
       style="fill:#dc291e;fill-opacity:1;fill-rule:nonzero;stroke:none;stroke-width:1.82330203"
       id="path236"
       inkscape:connector-curvature="0"
       inkscape:export-filename="G:\Users\suitedoalex\sites\svg\cpfl-energia-logo-4.png"
       inkscape:export-xdpi="75.274933"
       inkscape:export-ydpi="75.274933" />
    <g
       id="g238"
       transform="matrix(1.8233022,0,0,-1.8233022,55.70114,226.56718)"
       style="fill:#0098cd;fill-opacity:1"
       inkscape:export-filename="G:\Users\suitedoalex\sites\svg\cpfl-energia-logo-4.png"
       inkscape:export-xdpi="75.274933"
       inkscape:export-ydpi="75.274933">
      <path
         d="m 0,0 -0.594,-2.784 c -2.301,-0.283 -5.889,-0.319 -5.889,-0.319 -6.429,0 -8.791,3.235 -7.7,8.346 1.093,5.132 5.075,8.62 11.449,8.62 0,0 3.867,-0.152 6.491,-0.38 L 2.321,10.759 h -5.742 c -3.417,0 -4.906,-2.735 -5.518,-5.608 -0.59,-2.781 -0.341,-5.156 3.142,-5.156 z"
         style="fill:#0098cd;fill-opacity:1;fill-rule:nonzero;stroke:none"
         id="path240"
         inkscape:connector-curvature="0" />
    </g>
    <g
       id="g242"
       transform="matrix(1.8233022,0,0,-1.8233022,84.34307,219.57958)"
       style="fill:#0098cd;fill-opacity:1"
       inkscape:export-filename="G:\Users\suitedoalex\sites\svg\cpfl-energia-logo-4.png"
       inkscape:export-xdpi="75.274933"
       inkscape:export-ydpi="75.274933">
      <path
         d="m 0,0 c -1.099,-0.34 -2.476,-0.454 -4.076,-0.5 -1.033,-0.024 -2.701,0 -3.509,0 l -1.321,-6.193 h -5.023 l 3.482,16.343 h 8.021 C -0.295,9.65 1.548,9.539 2.852,8.699 4.324,7.753 4.816,6.262 4.445,4.519 4,2.438 2.43,0.765 0,0 M -3.819,6.917 H -6.005 L -7.006,2.236 h 1.974 c 2.104,0 4.065,0.453 4.479,2.398 0.402,1.872 -1.215,2.283 -3.266,2.283"
         style="fill:#0098cd;fill-opacity:1;fill-rule:nonzero;stroke:none"
         id="path244"
         inkscape:connector-curvature="0" />
    </g>
    <g
       id="g246"
       transform="matrix(1.8233022,0,0,-1.8233022,130.60688,223.806)"
       style="fill:#0098cd;fill-opacity:1"
       inkscape:export-filename="G:\Users\suitedoalex\sites\svg\cpfl-energia-logo-4.png"
       inkscape:export-xdpi="75.274933"
       inkscape:export-ydpi="75.274933">
      <path
         d="M 0,0 C -0.184,-0.869 0.343,-1.572 1.181,-1.572 H 8.323 L 6.738,-4.375 H -3.536 c -1.367,0 -2.226,1.149 -1.927,2.569 l 2.94,13.774 h 5.078 z"
         style="fill:#0098cd;fill-opacity:1;fill-rule:nonzero;stroke:none"
         id="path248"
         inkscape:connector-curvature="0" />
    </g>
    <g
       id="g250"
       transform="matrix(1.8233022,0,0,-1.8233022,104.3803,214.14375)"
       style="fill:#0098cd;fill-opacity:1"
       inkscape:export-filename="G:\Users\suitedoalex\sites\svg\cpfl-energia-logo-4.png"
       inkscape:export-xdpi="75.274933"
       inkscape:export-ydpi="75.274933">
      <path
         d="M 0,0 H 7.839 L 7.25,-2.761 h -7.837 l -1.474,-6.918 h -4.945 l 2.937,13.775 c 0.304,1.421 1.656,2.573 3.02,2.573 H 10.355 L 8.773,3.866 H 2.337 C 1.504,3.866 0.674,3.158 0.486,2.29 Z"
         style="fill:#0098cd;fill-opacity:1;fill-rule:nonzero;stroke:none"
         id="path252"
         inkscape:connector-curvature="0" />
    </g>
    <g
       id="g254"
       transform="matrix(1.8233022,0,0,-1.8233022,60.52874,243.89512)"
       style="fill:#0098cd;fill-opacity:1"
       inkscape:export-filename="G:\Users\suitedoalex\sites\svg\cpfl-energia-logo-4.png"
       inkscape:export-xdpi="75.274933"
       inkscape:export-ydpi="75.274933">
      <path
         d="M 0,0 H 3.528 L 3.264,-1.191 H -0.263 L -0.66,-2.984 H 2.88 L 2.612,-4.186 h -5.763 l 1.322,5.958 c 0.135,0.616 0.742,1.115 1.358,1.115 H 4.662 L 3.95,1.672 H 1.053 c -0.375,0 -0.75,-0.304 -0.832,-0.678 z"
         style="fill:#0098cd;fill-opacity:1;fill-rule:nonzero;stroke:none"
         id="path256"
         inkscape:connector-curvature="0" />
    </g>
    <g
       id="g258"
       transform="matrix(1.8233022,0,0,-1.8233022,90.60051,243.89512)"
       style="fill:#0098cd;fill-opacity:1"
       inkscape:export-filename="G:\Users\suitedoalex\sites\svg\cpfl-energia-logo-4.png"
       inkscape:export-xdpi="75.274933"
       inkscape:export-ydpi="75.274933">
      <path
         d="M 0,0 H 3.527 L 3.262,-1.191 H -0.265 L -0.66,-2.984 H 2.877 L 2.612,-4.186 h -5.767 l 1.323,5.958 c 0.136,0.616 0.744,1.115 1.358,1.115 H 4.662 L 3.949,1.672 H 1.052 C 0.675,1.672 0.302,1.368 0.22,0.994 Z"
         style="fill:#0098cd;fill-opacity:1;fill-rule:nonzero;stroke:none"
         id="path260"
         inkscape:connector-curvature="0" />
    </g>
    <g
       id="g262"
       transform="matrix(1.8233022,0,0,-1.8233022,127.35951,251.52784)"
       style="fill:#0098cd;fill-opacity:1"
       inkscape:export-filename="G:\Users\suitedoalex\sites\svg\cpfl-energia-logo-4.png"
       inkscape:export-xdpi="75.274933"
       inkscape:export-ydpi="75.274933">
      <path
         d="M 0,0 1.568,7.073 H 3.853 L 2.285,0 Z"
         style="fill:#0098cd;fill-opacity:1;fill-rule:nonzero;stroke:none"
         id="path264"
         inkscape:connector-curvature="0" />
    </g>
    <g
       id="g266"
       transform="matrix(1.8233022,0,0,-1.8233022,76.7715,251.52784)"
       style="fill:#0098cd;fill-opacity:1"
       inkscape:export-filename="G:\Users\suitedoalex\sites\svg\cpfl-energia-logo-4.png"
       inkscape:export-xdpi="75.274933"
       inkscape:export-ydpi="75.274933">
      <path
         d="M 0,0 -1.739,5.858 -3.036,0 h -1.946 l 1.567,7.073 h 3.16 L 1.48,1.202 2.784,7.073 H 4.729 L 3.158,0 Z"
         style="fill:#0098cd;fill-opacity:1;fill-rule:nonzero;stroke:none"
         id="path268"
         inkscape:connector-curvature="0" />
    </g>
    <g
       transform="matrix(1.8233022,0,0,-1.8233022,-1326.4231,301.87761)"
       id="g270"
       style="fill:#0098cd;fill-opacity:1"
       inkscape:export-filename="G:\Users\suitedoalex\sites\svg\cpfl-energia-logo-4.png"
       inkscape:export-xdpi="75.274933"
       inkscape:export-ydpi="75.274933">
      <g
         id="g272"
         clip-path="url(#clipPath276)"
         style="fill:#0098cd;fill-opacity:1">
        <g
           id="g278"
           transform="translate(788.2928,27.6149)"
           style="fill:#0098cd;fill-opacity:1">
          <path
             d="M 0,0 H -2.474 L -3.386,2.68 H -4.337 L -4.932,0 h -2.259 l 1.569,7.073 h 3.607 c 0.96,0 1.785,-0.049 2.374,-0.411 C 1.023,6.25 1.248,5.617 1.076,4.851 0.906,4.085 0.177,3.209 -1.309,2.935 Z M -2.643,5.889 H -3.631 L -4.076,3.865 h 0.883 c 0.949,0 1.836,0.195 2.02,1.036 0.18,0.813 -0.546,0.988 -1.47,0.988"
             style="fill:#0098cd;fill-opacity:1;fill-rule:nonzero;stroke:none"
             id="path280"
             inkscape:connector-curvature="0" />
        </g>
        <g
           id="g282"
           transform="translate(796.9086,31.4879)"
           style="fill:#0098cd;fill-opacity:1">
          <path
             d="M 0,0 -0.859,-3.873 C -2.48,-4.015 -3.907,-4.01 -3.907,-4.01 c -2.894,0 -3.955,1.398 -3.463,3.609 0.488,2.219 2.282,3.729 5.15,3.729 0,0 1.74,-0.068 2.919,-0.165 L 0.013,1.985 h -2.541 c -1.573,0 -2.185,-1.071 -2.485,-2.427 -0.265,-1.202 0.209,-2.356 1.642,-2.356 0.443,0 0.494,0.13 0.494,0.13 L -2.283,0 Z"
             style="fill:#0098cd;fill-opacity:1;fill-rule:nonzero;stroke:none"
             id="path284"
             inkscape:connector-curvature="0" />
        </g>
      </g>
    </g>
    <g
       id="g286"
       transform="matrix(1.8233022,0,0,-1.8233022,144.83641,251.52784)"
       style="fill:#0098cd;fill-opacity:1"
       inkscape:export-filename="G:\Users\suitedoalex\sites\svg\cpfl-energia-logo-4.png"
       inkscape:export-xdpi="75.274933"
       inkscape:export-ydpi="75.274933">
      <path
         d="M 0,0 -0.33,1.586 H -3.399 L -4.433,0 h -2.2 l 4.946,7.073 H 0.568 L 2.443,0 Z M -0.927,5.858 -2.755,2.711 h 2.238 z"
         style="fill:#0098cd;fill-opacity:1;fill-rule:nonzero;stroke:none"
         id="path288"
         inkscape:connector-curvature="0" />
    </g>
  </g>
</svg>
